<svg width="158" height="158" fill="none" xmlns="http://www.w3.org/2000/svg"><circle opacity=".5" cx="79" cy="79" r="75" stroke="#C3C8C9" stroke-width="7"/><path opacity=".5" d="M53.557 49.112A9.112 9.112 0 0162.669 40h20.894c2.417 0 4.734.96 6.443 2.67l15.554 15.554a9.114 9.114 0 012.67 6.443v39.118a9.109 9.109 0 01-9.112 9.112h-6.962a27.335 27.335 0 00-38.599-38.599V49.112z" fill="#C3C8C9"/><path opacity=".5" fill-rule="evenodd" clip-rule="evenodd" d="M71.781 76.448a18.224 18.224 0 00-15.7 27.483l-5.745 5.74a4.557 4.557 0 006.442 6.447l5.745-5.745a18.217 18.217 0 0016.113 1.184 18.23 18.23 0 0010.722-12.086 18.223 18.223 0 00-17.577-23.023zM62.67 94.673a9.112 9.112 0 1118.224 0 9.112 9.112 0 01-18.224 0z" fill="#C3C8C9"/></svg>